<svg xmlns="http://www.w3.org/2000/svg" xmlns:xlink="http://www.w3.org/1999/xlink" xmlns:lucid="lucid" width="921.15" height="622"><g transform="translate(7.105427357601002e-14 20)" lucid:page-tab-id="0_0"><path d="M205 273.3h84v42h-84z" fill="#fff" fill-opacity="0"/><use xlink:href="#a" transform="matrix(1,0,0,1,210.00000000000006,278.2901892115377) translate(10.33333333333334 23.33333333333333)"/><path d="M216.5 314.2h61v52h-61z" fill="#fff" fill-opacity="0"/><use xlink:href="#b" transform="matrix(1,0,0,1,220.50000000000006,318.2083431686318) translate(-0.16666666666666075 27.333333333333332)"/><path d="M177 204.33h140v64.63H177z" stroke="#5e5e5e" fill="#e5e5e5"/><use xlink:href="#c" transform="matrix(1,0,0,1,190.00000000000006,217.33333333333363) translate(8.660445601851869 25.74479166666666)"/><path d="M340 274.2h71v40.17h-71z" fill="#fff" fill-opacity="0"/><use xlink:href="#d" transform="matrix(1,0,0,1,345,279.2063601147286) translate(3.8333333333333393 23.27083333333333)"/><path d="M340 314.2h71v52h-71z" fill="#fff" fill-opacity="0"/><use xlink:href="#b" transform="matrix(1,0,0,1,344,318.2083431686318) translate(4.833333333333339 26.83333333333333)"/><path d="M52.4 285.3h72.15v42H52.4z" fill="#fff" fill-opacity="0"/><use xlink:href="#e" transform="matrix(1,0,0,1,57.40123456790128,290.2901892115377) translate(0 21.33333333333333)"/><path d="M317 204.33h120v64.63H317z" stroke="#5e5e5e" fill="#e5e5e5"/><use xlink:href="#f" transform="matrix(1,0,0,1,330,217.33333333333363) translate(2.8466435185185333 25.74479166666666)"/><path d="M29 163h440v40H29z" fill="#fff" fill-opacity="0"/><use xlink:href="#g" transform="matrix(1,0,0,1,34,168.00000000000006) translate(142.53703703703707 24.888888888888886)"/><use xlink:href="#h" transform="matrix(1,0,0,1,34,168.00000000000006) translate(221.87037037037038 24.888888888888886)"/><path d="M20 268.46h139.4v47.9H20z" fill="#fff"/><use xlink:href="#e" transform="matrix(1,0,0,1,25.99999999999993,274.4568558782045) translate(65.85185185185186 23.58333333333333)"/><path d="M20 316.37h139.4v47.92H20z" fill="#fff"/><use xlink:href="#i" transform="matrix(1,0,0,1,25.99999999999993,322.37451407182283) translate(11.185185185185219 23.58333333333333)"/><path d="M516 273.3h73v42h-73z" fill="#fff" fill-opacity="0"/><use xlink:href="#j" transform="matrix(1,0,0,1,521,278.2901892115377) translate(4.833333333333339 23.33333333333333)"/><path d="M516 314.2h73v52h-73z" fill="#fff" fill-opacity="0"/><use xlink:href="#b" transform="matrix(1,0,0,1,520,318.2083431686321) translate(5.833333333333339 26.83333333333333)"/><path d="M485 204.33h120v64.63H485z" stroke="#5e5e5e" fill="#e5e5e5"/><use xlink:href="#f" transform="matrix(1,0,0,1,498.00000000000006,217.33333333333363) translate(2.8466435185185333 25.74479166666666)"/><path d="M333 163h440v40H333z" fill="#fff" fill-opacity="0"/><use xlink:href="#k" transform="matrix(1,0,0,1,338,168.00000000000006) translate(147.76543209876544 24.888888888888886)"/><path d="M515 337.42h-51.44c-.03 0-.06-.03-.06-.06 0-.04-.03-.07-.06-.07H429.5" stroke="#19967d" stroke-width="2" fill="none"/><path d="M516 338.42h-1.03v-2H516z" stroke="#19967d" stroke-width=".05" fill="#19967d"/><path d="M414.24 337.3l14.26-4.64v9.27z" stroke="#19967d" stroke-width="2" fill="#19967d"/><path d="M497.5 294.3h-68" stroke="#c92d39" stroke-width="2" fill="none"/><path d="M512.76 294.3l-14.26 4.63v-9.28zM414.24 294.3l14.26-4.65v9.28z" stroke="#c92d39" stroke-width="2" fill="#c92d39"/><path d="M605 204.33h128.5v64.63H605z" stroke="#5e5e5e" fill="#e5e5e5"/><use xlink:href="#l" transform="matrix(1,0,0,1,618,217.33333333333363) translate(1.7216435185185333 25.74479166666666)"/><path d="M174 0h440v140H174z" fill="#fff" fill-opacity="0"/><use xlink:href="#m" transform="matrix(1,0,0,1,178.99999999999997,5) translate(0 25.249565972222218)"/><use xlink:href="#n" transform="matrix(1,0,0,1,178.99999999999997,5) translate(77.568359375 25.249565972222218)"/><use xlink:href="#o" transform="matrix(1,0,0,1,178.99999999999997,5) translate(96.97808159722223 25.249565972222218)"/><use xlink:href="#p" transform="matrix(1,0,0,1,178.99999999999997,5) translate(137.26453993055554 25.249565972222218)"/><use xlink:href="#q" transform="matrix(1,0,0,1,178.99999999999997,5) translate(251.40950520833331 25.249565972222218)"/><use xlink:href="#r" transform="matrix(1,0,0,1,178.99999999999997,5) translate(274.3315972222222 25.249565972222218)"/><use xlink:href="#s" transform="matrix(1,0,0,1,178.99999999999997,5) translate(0 58.68055555555554)"/><use xlink:href="#n" transform="matrix(1,0,0,1,178.99999999999997,5) translate(68.49826388888889 58.68055555555554)"/><use xlink:href="#o" transform="matrix(1,0,0,1,178.99999999999997,5) translate(87.90798611111111 58.68055555555554)"/><use xlink:href="#t" transform="matrix(1,0,0,1,178.99999999999997,5) translate(128.19444444444446 58.68055555555554)"/><use xlink:href="#u" transform="matrix(1,0,0,1,178.99999999999997,5) translate(183.40494791666669 58.68055555555554)"/><use xlink:href="#q" transform="matrix(1,0,0,1,178.99999999999997,5) translate(282.40017361111114 58.68055555555554)"/><use xlink:href="#v" transform="matrix(1,0,0,1,178.99999999999997,5) translate(305.322265625 58.68055555555554)"/><use xlink:href="#w" transform="matrix(1,0,0,1,178.99999999999997,5) translate(0 92.11154513888887)"/><use xlink:href="#n" transform="matrix(1,0,0,1,178.99999999999997,5) translate(80.68576388888889 92.11154513888887)"/><use xlink:href="#o" transform="matrix(1,0,0,1,178.99999999999997,5) translate(100.09548611111111 92.11154513888887)"/><use xlink:href="#t" transform="matrix(1,0,0,1,178.99999999999997,5) translate(140.38194444444446 92.11154513888887)"/><use xlink:href="#x" transform="matrix(1,0,0,1,178.99999999999997,5) translate(195.59244791666669 92.11154513888887)"/><use xlink:href="#y" transform="matrix(1,0,0,1,178.99999999999997,5) translate(234.65169270833334 92.11154513888887)"/><use xlink:href="#z" transform="matrix(1,0,0,1,178.99999999999997,5) translate(286.15234375 92.11154513888887)"/><use xlink:href="#A" transform="matrix(1,0,0,1,178.99999999999997,5) translate(333.1673177083333 92.11154513888887)"/><use xlink:href="#B" transform="matrix(1,0,0,1,178.99999999999997,5) translate(0 125.5425347222222)"/><use xlink:href="#n" transform="matrix(1,0,0,1,178.99999999999997,5) translate(99.22092013888887 125.5425347222222)"/><use xlink:href="#o" transform="matrix(1,0,0,1,178.99999999999997,5) translate(118.63064236111109 125.5425347222222)"/><use xlink:href="#C" transform="matrix(1,0,0,1,178.99999999999997,5) translate(158.9171006944444 125.5425347222222)"/><use xlink:href="#q" transform="matrix(1,0,0,1,178.99999999999997,5) translate(244.56814236111106 125.5425347222222)"/><use xlink:href="#D" transform="matrix(1,0,0,1,178.99999999999997,5) translate(267.49023437499994 125.5425347222222)"/><path d="M641 314.2h63v52h-63z" fill="#fff" fill-opacity="0"/><g><use xlink:href="#E" transform="matrix(1,0,0,1,645,318.2083431686318) translate(0.8333333333333393 26.83333333333333)"/></g><path d="M640 273.2h64v42h-64z" fill="#fff" fill-opacity="0"/><g><use xlink:href="#F" transform="matrix(1,0,0,1,645,278.2083431686318) translate(7.740740740740744 23.33333333333333)"/></g><path d="M175 426c0-3.3 2.7-6 6-6h714.15c3.3 0 6 2.7 6 6v148c0 3.3-2.7 6-6 6H181c-3.3 0-6-2.7-6-6z" stroke="#000" stroke-opacity="0" stroke-width="3" fill="#fff" fill-opacity="0"/><g><use xlink:href="#G" transform="matrix(1,0,0,1,180,425) translate(0 21.33333333333333)"/><use xlink:href="#H" transform="matrix(1,0,0,1,180,425) translate(63.48148148148147 21.33333333333333)"/><use xlink:href="#I" transform="matrix(1,0,0,1,180,425) translate(115.33333333333331 21.33333333333333)"/><use xlink:href="#J" transform="matrix(1,0,0,1,180,425) translate(226.22222222222217 21.33333333333333)"/><use xlink:href="#K" transform="matrix(1,0,0,1,180,425) translate(310.5185185185185 21.33333333333333)"/><use xlink:href="#L" transform="matrix(1,0,0,1,180,425) translate(340.1481481481481 21.33333333333333)"/><use xlink:href="#M" transform="matrix(1,0,0,1,180,425) translate(384.59259259259255 21.33333333333333)"/><use xlink:href="#N" transform="matrix(1,0,0,1,180,425) translate(451.1851851851851 21.33333333333333)"/><use xlink:href="#O" transform="matrix(1,0,0,1,180,425) translate(563.6296296296296 21.33333333333333)"/><use xlink:href="#P" transform="matrix(1,0,0,1,180,425) translate(602.074074074074 21.33333333333333)"/><use xlink:href="#Q" transform="matrix(1,0,0,1,180,425) translate(624.2962962962962 21.33333333333333)"/><use xlink:href="#R" transform="matrix(1,0,0,1,180,425) translate(0 53.33333333333332)"/><use xlink:href="#S" transform="matrix(1,0,0,1,180,425) translate(50.22222222222221 53.33333333333332)"/><use xlink:href="#T" transform="matrix(1,0,0,1,180,425) translate(115.18518518518516 53.33333333333332)"/><use xlink:href="#U" transform="matrix(1,0,0,1,180,425) translate(168.4444444444444 53.33333333333332)"/><use xlink:href="#V" transform="matrix(1,0,0,1,180,425) translate(242.29629629629625 53.33333333333332)"/><use xlink:href="#W" transform="matrix(1,0,0,1,180,425) translate(299.99999999999994 53.33333333333332)"/><use xlink:href="#X" transform="matrix(1,0,0,1,180,425) translate(337.03703703703695 53.33333333333332)"/><use xlink:href="#Y" transform="matrix(1,0,0,1,180,425) translate(485.03703703703695 53.33333333333332)"/><use xlink:href="#Z" transform="matrix(1,0,0,1,180,425) translate(570.8888888888888 53.33333333333332)"/><use xlink:href="#aa" transform="matrix(1,0,0,1,180,425) translate(649.1851851851851 53.33333333333332)"/><use xlink:href="#L" transform="matrix(1,0,0,1,180,425) translate(0 85.33333333333331)"/><use xlink:href="#ab" transform="matrix(1,0,0,1,180,425) translate(44.444444444444436 85.33333333333331)"/><use xlink:href="#ac" transform="matrix(1,0,0,1,180,425) translate(168.66666666666663 85.33333333333331)"/><use xlink:href="#ad" transform="matrix(1,0,0,1,180,425) translate(214.51851851851848 85.33333333333331)"/><use xlink:href="#ae" transform="matrix(1,0,0,1,180,425) translate(330.074074074074 85.33333333333331)"/><use xlink:href="#L" transform="matrix(1,0,0,1,180,425) translate(438.2222222222222 85.33333333333331)"/><use xlink:href="#af" transform="matrix(1,0,0,1,180,425) translate(482.66666666666663 85.33333333333331)"/><use xlink:href="#ag" transform="matrix(1,0,0,1,180,425) translate(0 117.3333333333333)"/><use xlink:href="#ah" transform="matrix(1,0,0,1,180,425) translate(102.2222222222222 117.3333333333333)"/><use xlink:href="#J" transform="matrix(1,0,0,1,180,425) translate(136.2222222222222 117.3333333333333)"/><use xlink:href="#O" transform="matrix(1,0,0,1,180,425) translate(220.51851851851848 117.3333333333333)"/><use xlink:href="#ai" transform="matrix(1,0,0,1,180,425) translate(258.96296296296293 117.3333333333333)"/><use xlink:href="#R" transform="matrix(1,0,0,1,180,425) translate(324.1481481481481 117.3333333333333)"/><use xlink:href="#aj" transform="matrix(1,0,0,1,180,425) translate(374.3703703703703 117.3333333333333)"/><use xlink:href="#W" transform="matrix(1,0,0,1,180,425) translate(403.99999999999994 117.3333333333333)"/><use xlink:href="#ak" transform="matrix(1,0,0,1,180,425) translate(441.03703703703695 117.3333333333333)"/><use xlink:href="#al" transform="matrix(1,0,0,1,180,425) translate(568.3703703703702 117.3333333333333)"/><use xlink:href="#am" transform="matrix(1,0,0,1,180,425) translate(623.0370370370368 117.3333333333333)"/><use xlink:href="#I" transform="matrix(1,0,0,1,180,425) translate(0 149.33333333333331)"/><use xlink:href="#J" transform="matrix(1,0,0,1,180,425) translate(110.88888888888886 149.33333333333331)"/><use xlink:href="#K" transform="matrix(1,0,0,1,180,425) translate(195.18518518518513 149.33333333333331)"/><use xlink:href="#L" transform="matrix(1,0,0,1,180,425) translate(224.81481481481475 149.33333333333331)"/><use xlink:href="#an" transform="matrix(1,0,0,1,180,425) translate(269.2592592592592 149.33333333333331)"/></g><path d="M431 289.54h71v40.17h-71z" fill="#fff" fill-opacity="0"/><g><use xlink:href="#ao" transform="matrix(1,0,0,1,436,294.54180185125324) translate(23.81172839506173 21.493055555555554)"/></g><path d="M431 331.7h71v40.18h-71z" fill="#fff" fill-opacity="0"/><g><use xlink:href="#ap" transform="matrix(1,0,0,1,436,336.70946004487143) translate(23.370370370370374 21.493055555555554)"/></g><path d="M738.5 337H756" stroke="#19967d" stroke-width="2" fill="none"/><path d="M723.24 337l14.26-4.64v9.28z" stroke="#19967d" stroke-width="2" fill="#19967d"/><path d="M757 338h-1.03v-2H757z" stroke="#19967d" stroke-width=".05" fill="#19967d"/><path d="M757 299c0-3.3 2.7-6 6-6h132.15c3.3 0 6 2.7 6 6v76c0 3.3-2.7 6-6 6H763c-3.3 0-6-2.7-6-6z" stroke="#000" stroke-opacity="0" stroke-width="3" fill="#99d5ca"/><g><use xlink:href="#aq" transform="matrix(1,0,0,1,769,305) translate(33.90740740740742 21.333333333333336)"/><use xlink:href="#ar" transform="matrix(1,0,0,1,769,305) translate(-6.0555555555555145 53.33333333333332)"/></g><path d="M339 337h-43" stroke="#19967d" stroke-width="2" fill="none"/><path d="M340 338h-1.03v-2H340z" stroke="#19967d" stroke-width=".05" fill="#19967d"/><path d="M280.74 337l14.26-4.64v9.28z" stroke="#19967d" stroke-width="2" fill="#19967d"/><path d="M634 337h-25.5M633.97 337H635" stroke="#19967d" stroke-width="2" fill="none"/><path d="M593.24 337l14.26-4.64v9.28z" stroke="#19967d" stroke-width="2" fill="#19967d"/><defs><path fill="#333" d="M115-159c48 0 72 30 72 78 0 54-30 85-83 85-64 0-91-50-91-122 0-98 58-163 141-120 15 8 21 24 27 44l-47 6c-5-31-48-31-61-4-7 14-11 33-11 60 9-17 28-27 53-27zM102-35c24 0 36-20 36-45s-11-43-37-43c-23 0-36 14-36 38 0 27 11 50 37 50" id="as"/><path fill="#333" d="M249-155c45 1 62 31 62 79-1 48-18 79-63 79s-61-32-62-79c0-48 16-79 63-79zM97 0H61l162-248h36zM9-172c0-48 16-79 63-78 46 0 62 31 62 78 0 48-18 79-63 79S9-124 9-172zM249-25c24 0 24-26 24-51 0-26-1-52-24-52-24 0-25 26-25 52 0 25 0 51 25 51zM71-120c23 0 24-25 24-52 0-26 0-51-23-51-25 0-25 25-25 51 0 27 1 52 24 52" id="at"/><g id="a"><use transform="matrix(0.07407407407407406,0,0,0.07407407407407406,0,0)" xlink:href="#as"/><use transform="matrix(0.07407407407407406,0,0,0.07407407407407406,14.814814814814811,0)" xlink:href="#as"/><use transform="matrix(0.07407407407407406,0,0,0.07407407407407406,29.629629629629623,0)" xlink:href="#at"/></g><path fill="#19967d" d="M182-182c0 78-84 86-111 141h115V0H12c-6-101 99-100 120-180 1-22-12-31-33-32-23 0-32 14-35 34l-49-3c5-45 32-70 84-70 51 0 83 22 83 69" id="au"/><path fill="#19967d" d="M101-251c68 0 84 54 84 127C185-50 166 4 99 4S15-52 14-124c-1-75 17-127 87-127zm-1 216c37-5 36-46 36-89s4-89-36-89c-39 0-36 45-36 89 0 43-3 85 36 89" id="av"/><path fill="#19967d" d="M249-155c45 1 62 31 62 79-1 48-18 79-63 79s-61-32-62-79c0-48 16-79 63-79zM97 0H61l162-248h36zM9-172c0-48 16-79 63-78 46 0 62 31 62 78 0 48-18 79-63 79S9-124 9-172zM249-25c24 0 24-26 24-51 0-26-1-52-24-52-24 0-25 26-25 52 0 25 0 51 25 51zM71-120c23 0 24-25 24-52 0-26 0-51-23-51-25 0-25 25-25 51 0 27 1 52 24 52" id="aw"/><g id="b"><use transform="matrix(0.07407407407407406,0,0,0.07407407407407406,0,0)" xlink:href="#au"/><use transform="matrix(0.07407407407407406,0,0,0.07407407407407406,14.814814814814811,0)" xlink:href="#av"/><use transform="matrix(0.07407407407407406,0,0,0.07407407407407406,29.629629629629623,0)" xlink:href="#aw"/></g><path fill="#333" d="M597-1290c275 0 491 82 491 348 0 203-131 323-282 388-95 42-235 48-321 0l-17-104c43 16 70 33 124 33 169 0 252-108 254-280 3-205-122-289-330-278L371-134c6 29 41 34 74 44 20 6 46 11 77 17l-9 73H-8L2-73c42-9 74-20 97-31s35-21 36-30l142-1027c-49 7-96 16-143 26v-90c134-39 292-65 463-65" id="ax"/><path fill="#333" d="M67-93c0 74 22 123 53 168H70C40 30 18-18 18-93s22-123 52-168h50c-32 44-53 94-53 168" id="ay"/><path fill="#333" d="M1119-547c-83 22-108 56-115 151-5 72-18 158-27 227C865-81 764-5 612 22 350 69 177-80 99-272c-73-181-28-439 45-580 126-240 298-438 657-438 127 0 242 41 314 102-13 74-68 135-105 188-9 12-18 20-24 25l-58-13c-47-95-110-176-251-176-238 0-321 256-363 484-52 279 28 552 289 552 58 0 111-13 148-43l42-294c-3-46-46-47-92-60-28-8-68-14-118-22l6-73h536" id="az"/><path fill="#333" d="M905-180c25 66 98 25 146 8l18 66C998-58 923-3 840 28 700 80 661-70 651-208 582-111 495-24 380 22 216 87 110-37 110-205c0-173 66-325 66-495 0-38-3-69-41-67-35 2-64 15-95 24l-16-67c108-45 234-103 360-126 47 2 49 31 49 84 0 200-69 382-80 582-4 75 29 143 96 101 89-57 152-142 217-236 14-97 42-192 42-295 0-37-1-69-37-67-33 2-59 15-87 24l-18-67c106-44 227-103 351-126 45 3 46 32 46 84 0 188-72 355-72 545 0 61 5 103 14 127" id="aA"/><path fill="#333" d="M397-144c52 0 83-17 122-33l19 67C453-60 358-10 262 28 173 63 109 16 114-76c13-213 92-413 92-624 0-38-3-70-41-67-34 2-62 15-92 24l-18-67c106-44 226-104 350-126 45 2 62 31 59 84-13 223-97 426-97 649 0 34 2 59 30 59zm61-1204c62-3 103 34 103 86 0 101-70 165-176 171-62 3-102-32-102-85 0-100 70-166 175-172" id="aB"/><path fill="#333" d="M380-144c49 0 73-16 121-33l16 67C411-49 306 25 161 41c-48-5-77-56-72-119 35-407 137-794 165-1208 3-41-11-70-51-67-35 3-66 17-97 27l-18-69c109-44 235-103 362-125 45 2 64 29 61 82-27 425-166 812-166 1235 0 37 6 59 35 59" id="aC"/><path fill="#333" d="M432-165c82 0 125-31 204-64l27 74C571-82 471-16 356 26c-28 10-51 15-70 15-164 0-184-194-156-373l72-453H67l-23-39 120-81h57c12-63 14-128 52-159 7-5 14-11 23-18l191-94 28 25c-36 59-44 156-60 246h241l28 35c-37 46-91 96-138 130-23-46-76-43-150-45-23 169-63 322-69 506-2 67 14 114 65 114" id="aD"/><path fill="#333" d="M871-936c56-4 95 19 90 76-9 97-55 179-101 276C748-348 607-68 468 154c-79 126-168 232-286 304-107 66-281 44-359-20-30-24-22-35-3-70 29-53 76-116 123-149 49 46 106 88 181 88 38 0 77-20 117-59s83-96 128-169c-52-265-110-539-204-764-21-51-28-72-72-82-36 3-66 15-98 24l-20-67c98-44 195-126 312-126 19 0 38 8 49 29 97 186 146 446 202 677 67-136 131-282 185-426 29-77 16-146-73-124-12 4-28 10-47 19l-26-67c85-46 178-100 294-108" id="aE"/><path fill="#333" d="M102-93c0 74-22 123-52 168H0C30 29 54-18 53-93c0-74-22-123-53-168h50c30 45 52 94 52 168" id="aF"/><g id="c"><use transform="matrix(0.01302083333333333,0,0,0.01302083333333333,0,0)" xlink:href="#ax"/><use transform="matrix(0.07407407407407406,0,0,0.07407407407407406,13.84114583333333,0)" xlink:href="#ay"/><use transform="matrix(0.01302083333333333,0,0,0.01302083333333333,22.655960648148145,0)" xlink:href="#az"/><use transform="matrix(0.01302083333333333,0,0,0.01302083333333333,37.239293981481474,0)" xlink:href="#aA"/><use transform="matrix(0.01302083333333333,0,0,0.01302083333333333,51.57523148148147,0)" xlink:href="#aB"/><use transform="matrix(0.01302083333333333,0,0,0.01302083333333333,58.971064814814795,0)" xlink:href="#aC"/><use transform="matrix(0.01302083333333333,0,0,0.01302083333333333,66.09346064814812,0)" xlink:href="#aD"/><use transform="matrix(0.01302083333333333,0,0,0.01302083333333333,75.11689814814812,0)" xlink:href="#aE"/><use transform="matrix(0.07407407407407406,0,0,0.07407407407407406,87.86429398148147,0)" xlink:href="#aF"/></g><path fill="#c92d39" d="M115-159c48 0 72 30 72 78 0 54-30 85-83 85-64 0-91-50-91-122 0-98 58-163 141-120 15 8 21 24 27 44l-47 6c-5-31-48-31-61-4-7 14-11 33-11 60 9-17 28-27 53-27zM102-35c24 0 36-20 36-45s-11-43-37-43c-23 0-36 14-36 38 0 27 11 50 37 50" id="aG"/><path fill="#c92d39" d="M249-155c45 1 62 31 62 79-1 48-18 79-63 79s-61-32-62-79c0-48 16-79 63-79zM97 0H61l162-248h36zM9-172c0-48 16-79 63-78 46 0 62 31 62 78 0 48-18 79-63 79S9-124 9-172zM249-25c24 0 24-26 24-51 0-26-1-52-24-52-24 0-25 26-25 52 0 25 0 51 25 51zM71-120c23 0 24-25 24-52 0-26 0-51-23-51-25 0-25 25-25 51 0 27 1 52 24 52" id="aH"/><g id="d"><use transform="matrix(0.07407407407407406,0,0,0.07407407407407406,0,0)" xlink:href="#aG"/><use transform="matrix(0.07407407407407406,0,0,0.07407407407407406,14.814814814814811,0)" xlink:href="#aG"/><use transform="matrix(0.07407407407407406,0,0,0.07407407407407406,29.629629629629623,0)" xlink:href="#aH"/></g><path fill="#333" d="M24-248c93 1 206-16 204 79-1 75-69 88-152 82V0H24v-248zm52 121c47 0 100 7 100-41 0-47-54-39-100-39v80" id="aI"/><path fill="#333" d="M135-150c-39-12-60 13-60 57V0H25l-1-190h47c2 13-1 29 3 40 6-28 27-53 61-41v41" id="aJ"/><path fill="#333" d="M25-224v-37h50v37H25zM25 0v-190h50V0H25" id="aK"/><path fill="#333" d="M110-194c64 0 96 36 96 99 0 64-35 99-97 99-61 0-95-36-95-99 0-62 34-99 96-99zm-1 164c35 0 45-28 45-65 0-40-10-65-43-65-34 0-45 26-45 65 0 36 10 65 43 65" id="aL"/><g id="e"><use transform="matrix(0.07407407407407406,0,0,0.07407407407407406,0,0)" xlink:href="#aI"/><use transform="matrix(0.07407407407407406,0,0,0.07407407407407406,17.777777777777775,0)" xlink:href="#aJ"/><use transform="matrix(0.07407407407407406,0,0,0.07407407407407406,28.148148148148145,0)" xlink:href="#aK"/><use transform="matrix(0.07407407407407406,0,0,0.07407407407407406,35.55555555555555,0)" xlink:href="#aL"/><use transform="matrix(0.07407407407407406,0,0,0.07407407407407406,51.77777777777777,0)" xlink:href="#aJ"/></g><path fill="#333" d="M1342-1187c-72 18-129 15-153 66L699-82C663-19 579 9 502 30L239-1121c-15-46-52-56-115-66l10-73h473l-10 73c-49 4-83 11-101 21s-24 24-19 43l184 839 391-837c9-19 5-34-11-43s-49-16-98-23l10-73h399" id="aM"/><path fill="#333" d="M639-725c-32-28-72-69-124-69-166 0-214 176-243 330-21 112-9 246 54 294 48 37 71 7 126-43 40-36 82-93 131-165 17-114 36-237 56-347zm180 537c21 78 90 34 145 16l16 66C909-57 834-4 754 30 662 69 619-9 594-82c-10-31-18-69-21-116-62 83-131 169-225 218-92 48-186-2-232-58-71-86-100-276-58-422 63-217 203-369 407-447 46-17 100-29 160-29 63 0 116 36 158 60 41-21 90-39 129-60l31 65c-79 45-83 180-102 281-24 126-57 275-22 402" id="aN"/><path fill="#333" d="M641-716c-33-32-71-78-129-78-136 0-183 126-220 237-42 127-50 383 77 401 67-17 102-68 146-120 24-28 47-64 74-105 14-104 35-224 52-335zm184 528c22 73 96 33 146 16l17 68C916-56 842-5 761 29 666 69 622-10 598-86c-10-31-16-70-19-115-54 78-107 138-161 179-81 60-141 87-229 42C87-32 38-155 38-315c0-261 131-419 294-527 75-49 165-94 283-94 23 0 40 11 58 20 17-121 40-242 44-370 1-40-7-70-45-67-36 3-67 17-100 27l-16-69c106-47 218-125 347-125 51 0 73 26 70 82-24 391-163 736-163 1124 0 57 7 98 15 126" id="aO"/><g id="f"><use transform="matrix(0.01302083333333333,0,0,0.01302083333333333,0,0)" xlink:href="#ax"/><use transform="matrix(0.07407407407407406,0,0,0.07407407407407406,13.84114583333333,0)" xlink:href="#ay"/><use transform="matrix(0.01302083333333333,0,0,0.01302083333333333,22.655960648148145,0)" xlink:href="#aM"/><use transform="matrix(0.01302083333333333,0,0,0.01302083333333333,38.879918981481474,0)" xlink:href="#aN"/><use transform="matrix(0.01302083333333333,0,0,0.01302083333333333,51.71846064814814,0)" xlink:href="#aC"/><use transform="matrix(0.01302083333333333,0,0,0.01302083333333333,58.840856481481474,0)" xlink:href="#aB"/><use transform="matrix(0.01302083333333333,0,0,0.01302083333333333,66.2366898148148,0)" xlink:href="#aO"/><use transform="matrix(0.07407407407407406,0,0,0.07407407407407406,79.49189814814812,0)" xlink:href="#aF"/></g><path fill="#333" d="M230 0l2-204L168 0h-37L68-204 70 0H24v-248h70l56 185 57-185h69V0h-46" id="aP"/><path fill="#333" d="M133-34C117-15 103 5 69 4 32 3 11-16 11-54c-1-60 55-63 116-61 1-26-3-47-28-47-18 1-26 9-28 27l-52-2c7-38 36-58 82-57s74 22 75 68l1 82c-1 14 12 18 25 15v27c-30 8-71 5-69-32zm-48 3c29 0 43-24 42-57-32 0-66-3-65 30 0 17 8 27 23 27" id="aQ"/><path fill="#333" d="M135-194c87-1 58 113 63 194h-50c-7-57 23-157-34-157-59 0-34 97-39 157H25l-1-190h47c2 12-1 28 3 38 12-26 28-41 61-42" id="aR"/><g id="g"><use transform="matrix(0.08641975308641973,0,0,0.08641975308641973,0,0)" xlink:href="#aP"/><use transform="matrix(0.08641975308641973,0,0,0.08641975308641973,25.8395061728395,0)" xlink:href="#aQ"/><use transform="matrix(0.08641975308641973,0,0,0.08641975308641973,43.12345679012344,0)" xlink:href="#aK"/><use transform="matrix(0.08641975308641973,0,0,0.08641975308641973,51.76543209876541,0)" xlink:href="#aR"/></g><path fill="#333" d="M176-78C186 10 51 31 16-35c-5-9-9-19-11-32l52-8c4 21 12 37 35 38 23 0 32-16 32-40v-130H75v-41h101v170" id="aS"/><path fill="#333" d="M85 4C-2 5 27-109 22-190h50c7 57-23 150 33 157 60-5 35-97 40-157h50l1 190h-47c-2-12 1-28-3-38-12 25-28 42-61 42" id="aT"/><path fill="#333" d="M123 10C108 53 80 86 19 72V37c35 8 53-11 59-39L3-190h52l48 148c12-52 28-100 44-148h51" id="aU"/><g id="h"><use transform="matrix(0.08641975308641973,0,0,0.08641975308641973,0,0)" xlink:href="#aS"/><use transform="matrix(0.08641975308641973,0,0,0.08641975308641973,17.283950617283946,0)" xlink:href="#aT"/><use transform="matrix(0.08641975308641973,0,0,0.08641975308641973,36.209876543209866,0)" xlink:href="#aJ"/><use transform="matrix(0.08641975308641973,0,0,0.08641975308641973,48.30864197530863,0)" xlink:href="#aU"/></g><path fill="#333" d="M137-138c1-29-70-34-71-4 15 46 118 7 119 86 1 83-164 76-172 9l43-7c4 19 20 25 44 25 33 8 57-30 24-41C81-84 22-81 20-136c-2-80 154-74 161-7" id="aV"/><path fill="#333" d="M115-3C79 11 28 4 28-45v-112H4v-33h27l15-45h31v45h36v33H77v99c-1 23 16 31 38 25v30" id="aW"/><path fill="#333" d="M185-48c-13 30-37 53-82 52C43 2 14-33 14-96s30-98 90-98c62 0 83 45 84 108H66c0 31 8 55 39 56 18 0 30-7 34-22zm-45-69c5-46-57-63-70-21-2 6-4 13-4 21h74" id="aX"/><g id="i"><use transform="matrix(0.07407407407407406,0,0,0.07407407407407406,0,0)" xlink:href="#aI"/><use transform="matrix(0.07407407407407406,0,0,0.07407407407407406,17.777777777777775,0)" xlink:href="#aL"/><use transform="matrix(0.07407407407407406,0,0,0.07407407407407406,33.99999999999999,0)" xlink:href="#aV"/><use transform="matrix(0.07407407407407406,0,0,0.07407407407407406,48.8148148148148,0)" xlink:href="#aW"/><use transform="matrix(0.07407407407407406,0,0,0.07407407407407406,57.62962962962962,0)" xlink:href="#aX"/><use transform="matrix(0.07407407407407406,0,0,0.07407407407407406,72.44444444444443,0)" xlink:href="#aJ"/><use transform="matrix(0.07407407407407406,0,0,0.07407407407407406,82.8148148148148,0)" xlink:href="#aK"/><use transform="matrix(0.07407407407407406,0,0,0.07407407407407406,90.2222222222222,0)" xlink:href="#aL"/><use transform="matrix(0.07407407407407406,0,0,0.07407407407407406,106.44444444444441,0)" xlink:href="#aJ"/></g><path fill="#c92d39" d="M138-131c27 9 52 24 51 61 0 53-36 74-89 74S11-19 11-69c0-35 22-54 51-61-78-25-46-121 38-121 51 0 83 19 83 66 0 30-18 49-45 54zm-38-16c24 0 32-13 32-36 1-23-11-34-32-34-22 0-33 12-32 34 0 22 9 36 32 36zm1 116c27 0 37-17 37-43 0-25-13-39-39-39-24 0-37 15-37 40 0 27 11 42 39 42" id="aY"/><path fill="#c92d39" d="M101-251c68 0 84 54 84 127C185-50 166 4 99 4S15-52 14-124c-1-75 17-127 87-127zm-1 216c37-5 36-46 36-89s4-89-36-89c-39 0-36 45-36 89 0 43-3 85 36 89" id="aZ"/><g id="j"><use transform="matrix(0.07407407407407406,0,0,0.07407407407407406,0,0)" xlink:href="#aY"/><use transform="matrix(0.07407407407407406,0,0,0.07407407407407406,14.814814814814811,0)" xlink:href="#aZ"/><use transform="matrix(0.07407407407407406,0,0,0.07407407407407406,29.629629629629623,0)" xlink:href="#aH"/></g><path fill="#333" d="M169-182c-1-43-94-46-97-3 18 66 151 10 154 114 3 95-165 93-204 36-6-8-10-19-12-30l50-8c3 46 112 56 116 5-17-69-150-10-154-114-4-87 153-88 188-35 5 8 8 18 10 28" id="ba"/><path fill="#333" d="M135-194c52 0 70 43 70 98 0 56-19 99-73 100-30 1-46-15-58-35L72 0H24l1-261h50v104c11-23 29-37 60-37zM114-30c31 0 40-27 40-66 0-37-7-63-39-63s-41 28-41 65c0 36 8 64 40 64" id="bb"/><path fill="#333" d="M14-72v-43h91v43H14" id="bc"/><g id="k"><use transform="matrix(0.08641975308641973,0,0,0.08641975308641973,0,0)" xlink:href="#ba"/><use transform="matrix(0.08641975308641973,0,0,0.08641975308641973,20.740740740740737,0)" xlink:href="#aT"/><use transform="matrix(0.08641975308641973,0,0,0.08641975308641973,39.66666666666666,0)" xlink:href="#bb"/><use transform="matrix(0.08641975308641973,0,0,0.08641975308641973,58.59259259259258,0)" xlink:href="#bc"/><use transform="matrix(0.08641975308641973,0,0,0.08641975308641973,68.87654320987653,0)" xlink:href="#aS"/><use transform="matrix(0.08641975308641973,0,0,0.08641975308641973,86.16049382716048,0)" xlink:href="#aT"/><use transform="matrix(0.08641975308641973,0,0,0.08641975308641973,105.0864197530864,0)" xlink:href="#aJ"/><use transform="matrix(0.08641975308641973,0,0,0.08641975308641973,117.18518518518516,0)" xlink:href="#aU"/></g><path fill="#333" d="M930-727c7-291-112-484-418-453L374-162c-3 19 4 35 23 42 53 21 177 15 231-14 194-102 295-311 302-593zm-314-563c365 0 566 177 566 537 0 217-78 382-180 509C894-109 745 0 511 0H-8L2-73c42-9 74-20 97-31s35-21 36-30l142-1025-141 20v-93c143-33 308-58 480-58" id="bd"/><path fill="#333" d="M380-936c68 2 45 107 41 170-2 28-8 61-12 88 53-87 101-154 169-208 46-37 109-66 176-40 47 19 90 56 138 76-42 61-80 141-127 198-7 8-13 12-17 12-73-8-106-125-187-52-115 103-178 276-209 466-9 55-13 110-11 163C272-32 181 7 115 41L75 3c43-224 105-457 105-703 0-38-5-69-41-67-35 2-64 14-95 24l-18-67c107-44 230-103 354-126" id="be"/><path fill="#333" d="M921-144c48 0 63-16 109-33l26 67C972-60 873-11 778 28 690 64 626 15 633-76c14-188 69-373 82-564 6-81-19-128-90-98-110 46-190 142-221 273-26 111-60 261-56 402C282-30 187 7 122 41L82 3c43-224 106-458 106-705 0-38-1-69-38-67-36 2-67 16-99 26l-19-69c107-43 233-100 355-124 65 2 45 93 45 161 0 18-3 35-5 52 73-73 144-126 215-161s136-52 196-52c102 0 136 58 132 159-7 202-85 376-85 574 0 38 5 59 36 59" id="bf"/><path fill="#333" d="M456-1520c56-8 59 46 59 103 0 312-85 596-127 888 87-65 201-146 280-211 28-23 45-42 52-55s2-22-13-27-42-7-81-6l-8-69c93-13 205-27 303-33 88-5 126 57 77 110-109 120-277 209-423 301 89 101 135 256 225 355 13 14 28 20 41 20 49-2 91-10 129-33l32 64C939-61 864-10 786 26c-94 43-144-37-182-94-83-124-137-294-224-410-16 118-36 233-40 355 0 26 1 45 5 58C277-32 181 7 114 41L71 3c59-383 135-782 181-1179 5-46 7-82 7-107 0-43-4-75-48-70-36 4-68 17-101 27l-18-69c109-44 236-108 364-125" id="bg"/><g id="l"><use transform="matrix(0.01302083333333333,0,0,0.01302083333333333,0,0)" xlink:href="#ax"/><use transform="matrix(0.07407407407407406,0,0,0.07407407407407406,13.84114583333333,0)" xlink:href="#ay"/><use transform="matrix(0.01302083333333333,0,0,0.01302083333333333,22.655960648148145,0)" xlink:href="#bd"/><use transform="matrix(0.01302083333333333,0,0,0.01302083333333333,38.38512731481481,0)" xlink:href="#be"/><use transform="matrix(0.01302083333333333,0,0,0.01302083333333333,49.270543981481474,0)" xlink:href="#aA"/><use transform="matrix(0.01302083333333333,0,0,0.01302083333333333,63.606481481481474,0)" xlink:href="#bf"/><use transform="matrix(0.01302083333333333,0,0,0.01302083333333333,77.66898148148147,0)" xlink:href="#bg"/><use transform="matrix(0.07407407407407406,0,0,0.07407407407407406,90.74189814814812,0)" xlink:href="#aF"/></g><g id="m"><use transform="matrix(0.014105902777777776,0,0,0.014105902777777776,0,0)" xlink:href="#az"/><use transform="matrix(0.014105902777777776,0,0,0.014105902777777776,15.798611111111109,0)" xlink:href="#aA"/><use transform="matrix(0.014105902777777776,0,0,0.014105902777777776,31.32921006944444,0)" xlink:href="#aB"/><use transform="matrix(0.014105902777777776,0,0,0.014105902777777776,39.34136284722222,0)" xlink:href="#aC"/><use transform="matrix(0.014105902777777776,0,0,0.014105902777777776,47.057291666666664,0)" xlink:href="#aD"/><use transform="matrix(0.014105902777777776,0,0,0.014105902777777776,56.832682291666664,0)" xlink:href="#aE"/></g><path fill="#333" d="M83-672c16-37 39-79 58-113h673l25 31c-15 38-38 80-57 114H108zM43-372c15-38 38-79 57-113h673l25 31c-15 38-38 80-57 114H67" id="bh"/><use transform="matrix(0.014105902777777776,0,0,0.014105902777777776,0,0)" xlink:href="#bh" id="n"/><path fill="#333" d="M352-90c82 0 133-30 211-64l17 37C486-49 387 21 252 41 109 22 117-184 141-332l77-483H74l-15-31 101-59h72c14-82 21-160 75-199l101-72 28 25c-33 61-45 156-60 246h249l20 28c-32 41-83 79-127 107-20-47-87-43-156-45-27 202-72 388-83 604-3 66 23 121 73 121" id="bi"/><path fill="#333" d="M793-135c-6 100 112 46 161 26l15 37C872-21 815 28 713 41c-47-3-79-59-74-117 17-205 86-416 86-624 0-70 2-136-70-134-130 42-229 138-293 252-71 126-89 326-102 510 0 17 1 33 2 47-44 22-100 43-143 66L86 10c68-407 139-834 188-1260 4-42 7-75 7-96-1-38-5-69-41-67-40 3-78 17-115 27l-12-39c84-36 173-77 270-95 74 4 61 83 53 162-26 224-64 465-98 680 90-110 186-200 330-244 33-10 64-14 94-14 100 0 117 63 117 176 0 217-73 413-86 625" id="bj"/><path fill="#333" d="M579-646c37-99-17-228-128-174-115 56-180 180-224 308-12 36-18 73-21 108 139-55 237-96 323-171 27-24 42-49 50-71zm-61-283c157-36 268 72 226 228-42 154-187 215-329 287-57 29-127 57-208 87 12 102 51 186 115 233 18 12 37 18 55 18 144 0 224-74 319-145 13 5 26 29 31 41C613-85 528-4 380 33 225 72 123-22 88-142c-97-333 92-609 306-738 36-22 78-39 124-49" id="bk"/><g id="o"><use transform="matrix(0.014105902777777776,0,0,0.014105902777777776,0,0)" xlink:href="#bi"/><use transform="matrix(0.014105902777777776,0,0,0.014105902777777776,8.872612847222221,0)" xlink:href="#bj"/><use transform="matrix(0.014105902777777776,0,0,0.014105902777777776,23.14778645833333,0)" xlink:href="#bk"/></g><path fill="#333" d="M668-722c-47-47-91-109-179-109-154 0-210 145-262 265-62 143-43 381 62 450 83 55 145-25 185-74 54-66 104-151 147-234 14-93 31-199 47-298zM795-78c47-1 77-9 116-26l13 36C838-14 788 27 696 41c-67-13-69-91-81-168-6-41-7-93-7-154C545-167 470-54 364 14c-91 58-187 3-234-58-69-89-97-274-60-424 60-241 222-390 457-460 75-22 127 9 168 45 23-151 53-304 59-463 2-40-7-70-45-67s-72 18-107 27l-12-39c84-35 172-77 268-95 45 2 55 29 55 82 0 397-163 746-163 1139 0 77 4 134 11 169s19 52 34 52" id="bl"/><path fill="#333" d="M526-770c-19-49-90-43-159-45l-72 622C254 110 134 350-74 485l-26-63C53 318 115 88 141-139l78-676H68l-15-31 101-59h75c24-228 81-415 230-522 71-51 177-125 295-77 59 24 99 73 149 101-51 33-100 82-166 98-54-24-64-112-141-112-130 0-153 152-183 269-20 77-25 163-36 243h256l20 28c-32 41-82 79-127 107" id="bm"/><path fill="#333" d="M833-76c48 0 81-16 125-33l15 37C881-21 816 41 717 41c-54 0-78-56-74-117 15-206 90-414 90-624 0-86-3-131-76-136-128 42-223 142-286 256-74 134-103 351-103 555-44 22-100 43-143 66L92 10c46-243 113-505 113-772 0-37 0-70-37-67-38 3-72 17-107 26l-14-39c84-34 173-76 268-94 58 2 38 81 38 143 0 37-6 81-9 115 87-107 182-199 320-244 33-11 64-14 94-14 102-1 129 71 129 174 0 219-90 412-90 627 0 38 5 59 36 59" id="bn"/><path fill="#333" d="M661-760c-53-49-159-101-247-48-113 67-182 195-214 341-30 137-2 291 76 351 83 63 145-40 186-90 52-62 103-149 141-225 17-109 40-224 58-329zM774-76c46 0 73-10 115-28l12 36C815-15 765 25 678 41c-67-11-72-79-84-155-6-40-8-93-8-158C527-170 447-59 354 10c-84 62-182 13-228-48-67-88-94-277-54-422 66-239 224-400 465-468 89-26 161 15 213 52 30-23 66-43 102-60l20 35c-81 49-83 182-104 289-30 154-64 328-30 492 5 25 13 44 36 44" id="bo"/><g id="p"><use transform="matrix(0.014105902777777776,0,0,0.014105902777777776,0,0)" xlink:href="#bl"/><use transform="matrix(0.014105902777777776,0,0,0.014105902777777776,13.668619791666664,0)" xlink:href="#bk"/><use transform="matrix(0.014105902777777776,0,0,0.014105902777777776,25.023871527777775,0)" xlink:href="#bm"/><use transform="matrix(0.014105902777777776,0,0,0.014105902777777776,32.90907118055555,0)" xlink:href="#bk"/><use transform="matrix(0.014105902777777776,0,0,0.014105902777777776,44.26432291666666,0)" xlink:href="#bn"/><use transform="matrix(0.014105902777777776,0,0,0.014105902777777776,58.53949652777776,0)" xlink:href="#bl"/><use transform="matrix(0.014105902777777776,0,0,0.014105902777777776,72.20811631944443,0)" xlink:href="#bo"/><use transform="matrix(0.014105902777777776,0,0,0.014105902777777776,85.21375868055554,0)" xlink:href="#bn"/><use transform="matrix(0.014105902777777776,0,0,0.014105902777777776,99.48893229166666,0)" xlink:href="#bi"/></g><path fill="#333" d="M311-76c55 0 81-15 129-33l15 37C371-28 309 41 199 41c-53 0-78-56-74-117 14-232 100-454 100-684 0-38-3-70-41-67-36 2-67 15-100 24l-14-37c83-35 168-78 264-96 45 2 51 31 51 84 0 243-104 474-104 717 0 34 2 59 30 59zm106-1257c42-3 67 28 65 71-4 84-41 151-123 156-42 3-68-26-65-70 5-82 42-152 123-157" id="bp"/><path fill="#333" d="M256-68c152 49 300-73 232-226-66-147-309-140-356-298-50-169 83-276 212-324 89-33 204-20 266 20 30 20 54 42 88 52-38 39-73 84-127 103-57-27-76-110-161-111-113-1-199 125-118 217 59 66 206 105 270 177 37 42 76 93 73 169-7 163-126 253-250 305C251 72 86 26 18-52-7-81-13-97 8-130c21-34 50-79 90-93 48 53 78 129 158 155" id="bq"/><g id="q"><use transform="matrix(0.014105902777777776,0,0,0.014105902777777776,0,0)" xlink:href="#bp"/><use transform="matrix(0.014105902777777776,0,0,0.014105902777777776,7.109374999999999,0)" xlink:href="#bq"/></g><path fill="#333" d="M674-748c-47-35-92-83-172-83-157 0-216 146-272 265-64 135-51 381 51 450 45 31 72 28 114-14 96-95 179-235 237-374 10-83 14-176 42-244zM538-928c95-27 164 21 218 59 29-28 63-48 100-67l23 35c-51 44-69 93-82 182-45 313-7 671-127 913-56 113-141 206-246 266-130 75-313 23-402-42-18-14-27-27-27-39C6 323 51 279 95 256c41 25 63 74 110 98 37 19 83 36 142 35 65 0 116-29 154-87 89-134 113-411 119-638C554-210 466-78 359 6c-85 67-183 19-233-44-69-87-94-276-57-422 57-221 202-364 401-447 23-9 46-15 68-21" id="br"/><path fill="#333" d="M808-120c19 78 102 32 153 16l14 36C892-16 837 29 743 41c-69-16-80-95-89-179-5-43-3-96 2-159C583-170 503-46 374 16c-50 24-105 41-152 10-63-42-101-123-101-231 0-192 74-366 74-555 0-38-3-69-41-67-37 2-69 15-103 24l-12-37c84-35 170-78 266-96 47 2 49 31 49 84 0 202-80 388-80 590 0 64 6 110 20 139 25 50 64 55 111 23 117-80 193-207 269-347 15-103 45-201 45-313 0-37-1-69-37-67-34 2-64 14-94 24l-15-37c82-35 164-78 258-96 45 3 46 32 46 84 0 206-82 390-82 598 0 61 6 105 13 134" id="bs"/><path fill="#333" d="M295-76c50 0 81-16 129-33l12 37C351-24 291 41 174 41c-49 0-78-56-72-119 38-425 141-836 172-1268 3-41-11-70-51-67-37 3-69 18-104 27l-15-39c84-35 172-77 269-95 45 2 64 29 61 82-29 447-174 858-174 1303 0 37 6 59 35 59" id="bt"/><path fill="#333" d="M811-936c96-8 94 88 63 164-94 239-205 440-333 690-110 215-221 423-416 540-83 51-219 61-295 8-32-22 9-71 22-96 13-26 38-56 61-69 41 27 76 43 143 43 54 0 106-26 158-78S320 139 376 44c-51-272-106-558-200-789-21-51-28-72-72-82-36 3-66 15-98 24l-12-37c79-33 150-77 237-96 60 11 66 74 86 127 71 194 127 423 172 644 92-183 187-372 258-573 19-53 17-103-42-106-21-2-52 6-91 23l-18-37c73-42 131-71 215-78" id="bu"/><g id="r"><use transform="matrix(0.014105902777777776,0,0,0.014105902777777776,0,0)" xlink:href="#br"/><use transform="matrix(0.014105902777777776,0,0,0.014105902777777776,12.850477430555554,0)" xlink:href="#bs"/><use transform="matrix(0.014105902777777776,0,0,0.014105902777777776,27.266710069444443,0)" xlink:href="#bp"/><use transform="matrix(0.014105902777777776,0,0,0.014105902777777776,34.37608506944444,0)" xlink:href="#bt"/><use transform="matrix(0.014105902777777776,0,0,0.014105902777777776,41.16102430555556,0)" xlink:href="#bi"/><use transform="matrix(0.014105902777777776,0,0,0.014105902777777776,50.03363715277778,0)" xlink:href="#bu"/></g><g id="s"><use transform="matrix(0.014105902777777776,0,0,0.014105902777777776,0,0)" xlink:href="#aM"/><use transform="matrix(0.014105902777777776,0,0,0.014105902777777776,17.57595486111111,0)" xlink:href="#aN"/><use transform="matrix(0.014105902777777776,0,0,0.014105902777777776,31.484375000000004,0)" xlink:href="#aC"/><use transform="matrix(0.014105902777777776,0,0,0.014105902777777776,39.20030381944444,0)" xlink:href="#aB"/><use transform="matrix(0.014105902777777776,0,0,0.014105902777777776,47.21245659722222,0)" xlink:href="#aO"/></g><path fill="#333" d="M143-1239c193-42 467-89 651-12 182 76 283 250 283 506 0 286-108 497-269 631C727-47 622 0 481 0H0l6-43c42-9 76-20 101-31s39-21 40-30l149-1089-153 17v-63zm759 657c55-360-80-652-458-623L299-139c-3 43 33 47 75 52 282 31 407-149 488-349 19-47 32-96 40-146" id="bv"/><path fill="#333" d="M289-1154c-34-40-71-51-131-63l6-43c70 1 144-6 212 1 41 4 45 41 64 77l484 924 123-897c-15-44-71-50-123-62l6-43h364l-6 43c-44 7-78 15-100 27s-34 24-35 35L989 31c-61-6-95-30-119-76l-497-959-123 900c-2 8 6 18 25 31s51 23 96 30l-6 43H0l6-43c65-8 116-25 137-61" id="bw"/><path fill="#333" d="M371-444L228-111c-9 21-4 36 16 45s55 16 106 23l-6 43H-35l6-43c69-16 130-17 152-68l487-1118c38-34 90-62 135-88L961-111c7 53 55 60 110 68l-4 43H682l4-43c47-3 81-11 102-21s29-26 25-47l-58-333H371zm368-91l-94-544-235 544h329" id="bx"/><g id="t"><use transform="matrix(0.014105902777777776,0,0,0.014105902777777776,0,0)" xlink:href="#bv"/><use transform="matrix(0.014105902777777776,0,0,0.014105902777777776,15.770399305555554,0)" xlink:href="#bw"/><use transform="matrix(0.014105902777777776,0,0,0.014105902777777776,33.247612847222214,0)" xlink:href="#bx"/></g><path fill="#333" d="M754-797c0-58-100-42-142-26l-18-35c66-32 139-78 225-78 93 0 84 101 52 179C762-489 617-264 457-2c-29 15-65 29-95 43l-32-31c-34-256-71-522-131-755-11-43-24-82-72-82-37 0-65 15-98 24l-13-37c80-33 155-77 244-96 61 8 66 72 80 127 53 200 87 439 115 659 110-180 210-362 280-562 14-39 19-68 19-85" id="by"/><path fill="#333" d="M686-221c9 13 23 29 31 41C607-84 522-3 374 33 214 72 121-24 78-147c-48-136-20-342 34-453 79-162 215-279 412-328 118-29 197 32 254 88 14 13 25 22 35 25-50 33-97 80-164 94-57-29-87-110-172-110-153 0-206 143-247 267-61 185-47 488 165 488 129 0 203-79 291-145" id="bz"/><g id="u"><use transform="matrix(0.014105902777777776,0,0,0.014105902777777776,0,0)" xlink:href="#bk"/><use transform="matrix(0.014105902777777776,0,0,0.014105902777777776,11.35525173611111,0)" xlink:href="#by"/><use transform="matrix(0.014105902777777776,0,0,0.014105902777777776,24.23394097222222,0)" xlink:href="#bp"/><use transform="matrix(0.014105902777777776,0,0,0.014105902777777776,31.343315972222218,0)" xlink:href="#bl"/><use transform="matrix(0.014105902777777776,0,0,0.014105902777777776,45.011935763888886,0)" xlink:href="#bk"/><use transform="matrix(0.014105902777777776,0,0,0.014105902777777776,56.3671875,0)" xlink:href="#bn"/><use transform="matrix(0.014105902777777776,0,0,0.014105902777777776,70.64236111111111,0)" xlink:href="#bz"/><use transform="matrix(0.014105902777777776,0,0,0.014105902777777776,81.85655381944444,0)" xlink:href="#bk"/></g><g id="v"><use transform="matrix(0.014105902777777776,0,0,0.014105902777777776,0,0)" xlink:href="#by"/><use transform="matrix(0.014105902777777776,0,0,0.014105902777777776,12.878689236111109,0)" xlink:href="#bo"/><use transform="matrix(0.014105902777777776,0,0,0.014105902777777776,25.884331597222218,0)" xlink:href="#bt"/><use transform="matrix(0.014105902777777776,0,0,0.014105902777777776,32.66927083333333,0)" xlink:href="#bp"/><use transform="matrix(0.014105902777777776,0,0,0.014105902777777776,39.77864583333333,0)" xlink:href="#bl"/></g><g id="w"><use transform="matrix(0.014105902777777776,0,0,0.014105902777777776,0,0)" xlink:href="#bd"/><use transform="matrix(0.014105902777777776,0,0,0.014105902777777776,17.039930555555554,0)" xlink:href="#be"/><use transform="matrix(0.014105902777777776,0,0,0.014105902777777776,28.832465277777775,0)" xlink:href="#aA"/><use transform="matrix(0.014105902777777776,0,0,0.014105902777777776,44.36306423611111,0)" xlink:href="#bf"/><use transform="matrix(0.014105902777777776,0,0,0.014105902777777776,59.59743923611111,0)" xlink:href="#bg"/></g><path fill="#333" d="M696-736c-26-48-83-93-147-42-97 77-189 186-251 306-11 73-22 147-22 216 0 75 61 124 116 154 239 57 344-179 349-428 2-84-17-155-45-206zm-313-784c70 2 50 95 44 164-23 245-72 490-107 729 78-130 167-242 306-293 263-96 297 291 228 524C798-208 667-41 481 22c-51 17-114 31-165 8C235-6 170-72 135-156c-8-21-12-41-12-61 0-382 122-745 149-1129 3-42-13-69-53-67-36 2-67 17-100 27l-13-39c85-36 179-77 277-95" id="bA"/><g id="x"><use transform="matrix(0.014105902777777776,0,0,0.014105902777777776,0,0)" xlink:href="#bt"/><use transform="matrix(0.014105902777777776,0,0,0.014105902777777776,6.784939236111111,0)" xlink:href="#bo"/><use transform="matrix(0.014105902777777776,0,0,0.014105902777777776,19.79058159722222,0)" xlink:href="#bA"/></g><g id="y"><use transform="matrix(0.014105902777777776,0,0,0.014105902777777776,0,0)" xlink:href="#bi"/><use transform="matrix(0.014105902777777776,0,0,0.014105902777777776,8.872612847222221,0)" xlink:href="#bk"/><use transform="matrix(0.014105902777777776,0,0,0.014105902777777776,20.227864583333332,0)" xlink:href="#bz"/><use transform="matrix(0.014105902777777776,0,0,0.014105902777777776,31.442057291666664,0)" xlink:href="#bj"/></g><path fill="#333" d="M1194-936c119-13 85 137 60 222-78 260-198 476-322 712-28 15-63 29-92 43l-33-31c-31-236-60-485-111-700-43 204-132 385-214 556-21 45-45 86-68 124-31 16-66 37-99 51l-32-31c-33-247-45-525-95-755-10-44-22-82-71-82-36 0-66 15-99 24L4-840c80-33 151-78 240-96 19 0 34 10 42 32 69 202 83 495 111 738 100-206 213-430 246-698 36-29 74-62 127-72 71 197 92 450 132 677 7 40 10 77 13 112 101-191 187-343 233-559 14-65 28-138-46-138-26 1-53 8-76 15l-18-37c56-32 114-62 186-70" id="bB"/><g id="z"><use transform="matrix(0.014105902777777776,0,0,0.014105902777777776,0,0)" xlink:href="#bB"/><use transform="matrix(0.014105902777777776,0,0,0.014105902777777776,18.196614583333332,0)" xlink:href="#bo"/><use transform="matrix(0.014105902777777776,0,0,0.014105902777777776,31.20225694444444,0)" xlink:href="#bq"/></g><path fill="#333" d="M309-936c52 1 39 62 39 115 0 66-17 142-26 203 53-109 101-190 172-258 41-39 78-60 141-60 62 0 79 68 133 86-27 36-54 87-83 120-9 10-16 15-23 15-54-2-59-62-107-69-59 13-96 73-129 128-99 165-168 368-164 631-44 22-100 43-143 66L86 10c48-243 113-499 113-770 0-38-5-69-41-67-38 2-70 15-103 24l-14-37c84-36 172-78 268-96" id="bC"/><path fill="#333" d="M381-1520c56-7 59 46 59 103 0 319-86 611-127 910 104-80 231-172 328-252 29-25 49-44 57-59s4-26-12-32-45-9-90-8l-4-39c78-8 144-35 231-33 59 1 74 9 76 62-12 43-46 71-85 106-97 88-230 167-351 239 98 122 154 303 253 423 14 17 29 24 42 24 50-1 73-3 114-26l17 34C820-13 774 29 686 39c-67-7-102-68-136-121-67-105-119-244-182-350-19-32-37-55-55-69-19 135-42 269-48 409-1 30 1 51 5 65-46 23-104 45-149 68L86 10c60-405 140-825 188-1243 5-48 7-85 7-110 0-43-4-75-48-70-38 4-72 18-108 27l-14-39c84-36 173-82 270-95" id="bD"/><g id="A"><use transform="matrix(0.014105902777777776,0,0,0.014105902777777776,0,0)" xlink:href="#bl"/><use transform="matrix(0.014105902777777776,0,0,0.014105902777777776,13.668619791666664,0)" xlink:href="#bC"/><use transform="matrix(0.014105902777777776,0,0,0.014105902777777776,23.923611111111107,0)" xlink:href="#bs"/><use transform="matrix(0.014105902777777776,0,0,0.014105902777777776,38.33984374999999,0)" xlink:href="#bn"/><use transform="matrix(0.014105902777777776,0,0,0.014105902777777776,52.6150173611111,0)" xlink:href="#bD"/></g><path fill="#333" d="M813-942c0-180-115-253-299-241l-65 479c30 10 58 12 96 12 159 0 268-89 268-250zm-679-285c323-83 929-153 919 256-3 144-92 234-185 302-40 28-86 50-138 65l221 390c21 42 53 64 114 48 19-4 42-10 69-19l26 68C1075-64 974-8 864 14c-83-4-106-65-132-131L552-581c-39-2-85-4-118-13l-62 460c-2 8 7 18 28 30s53 22 95 31L485 0H-8L2-73c42-9 75-20 98-31s35-21 36-30l139-1027c-49 6-98 15-142 25" id="bE"/><path fill="#333" d="M566-645c25-72 0-179-81-151-87 30-130 110-167 190-22 48-34 106-37 171 105-48 182-84 246-148 21-21 32-42 39-62zm-41-281c169-43 341 43 293 225-41 157-182 222-325 295-57 29-127 56-208 85 13 84 39 159 97 193 60 35 93 9 172-25 55-24 121-71 202-136 20 16 34 48 46 71C681-117 583-19 428 28 258 80 131-18 78-142c-59-138-17-346 44-447 92-151 209-288 403-337" id="bF"/><path fill="#333" d="M700-696c-17-40-62-85-116-48-85 56-146 142-204 237-10 71-21 140-21 206 0 68 55 112 102 139 84 48 161-22 196-75 67-102 99-320 43-459zm-246-824c52 2 57 26 57 82 0 242-66 487-99 717 73-94 142-174 260-206 280-75 347 297 247 531C841-213 717-41 517 22c-72 23-136 33-203-4-92-50-200-129-200-258 0-357 115-688 139-1046 3-42-13-69-53-67-34 2-63 17-92 27l-17-69c107-48 234-103 363-125" id="bG"/><g id="B"><use transform="matrix(0.014105902777777776,0,0,0.014105902777777776,0,0)" xlink:href="#bE"/><use transform="matrix(0.014105902777777776,0,0,0.014105902777777776,16.151258680555554,0)" xlink:href="#bF"/><use transform="matrix(0.014105902777777776,0,0,0.014105902777777776,28.35286458333333,0)" xlink:href="#aC"/><use transform="matrix(0.014105902777777776,0,0,0.014105902777777776,36.06879340277777,0)" xlink:href="#aB"/><use transform="matrix(0.014105902777777776,0,0,0.014105902777777776,44.08094618055555,0)" xlink:href="#aN"/><use transform="matrix(0.014105902777777776,0,0,0.014105902777777776,57.989366319444436,0)" xlink:href="#bG"/><use transform="matrix(0.014105902777777776,0,0,0.014105902777777776,72.37738715277777,0)" xlink:href="#aC"/><use transform="matrix(0.014105902777777776,0,0,0.014105902777777776,80.09331597222221,0)" xlink:href="#bF"/></g><g id="C"><use transform="matrix(0.014105902777777776,0,0,0.014105902777777776,0,0)" xlink:href="#bB"/><use transform="matrix(0.014105902777777776,0,0,0.014105902777777776,18.196614583333332,0)" xlink:href="#bp"/><use transform="matrix(0.014105902777777776,0,0,0.014105902777777776,25.305989583333332,0)" xlink:href="#bi"/><use transform="matrix(0.014105902777777776,0,0,0.014105902777777776,34.17860243055556,0)" xlink:href="#bn"/><use transform="matrix(0.014105902777777776,0,0,0.014105902777777776,48.453776041666664,0)" xlink:href="#bk"/><use transform="matrix(0.014105902777777776,0,0,0.014105902777777776,59.80902777777777,0)" xlink:href="#bq"/><use transform="matrix(0.014105902777777776,0,0,0.014105902777777776,69.83832465277777,0)" xlink:href="#bq"/></g><g id="D"><use transform="matrix(0.014105902777777776,0,0,0.014105902777777776,0,0)" xlink:href="#bC"/><use transform="matrix(0.014105902777777776,0,0,0.014105902777777776,10.254991319444443,0)" xlink:href="#bk"/><use transform="matrix(0.014105902777777776,0,0,0.014105902777777776,21.610243055555554,0)" xlink:href="#bt"/><use transform="matrix(0.014105902777777776,0,0,0.014105902777777776,28.395182291666664,0)" xlink:href="#bp"/><use transform="matrix(0.014105902777777776,0,0,0.014105902777777776,35.504557291666664,0)" xlink:href="#bo"/><use transform="matrix(0.014105902777777776,0,0,0.014105902777777776,48.51019965277777,0)" xlink:href="#bA"/><use transform="matrix(0.014105902777777776,0,0,0.014105902777777776,61.99544270833333,0)" xlink:href="#bt"/><use transform="matrix(0.014105902777777776,0,0,0.014105902777777776,68.78038194444444,0)" xlink:href="#bk"/></g><path fill="#19967d" d="M138-131c27 9 52 24 51 61 0 53-36 74-89 74S11-19 11-69c0-35 22-54 51-61-78-25-46-121 38-121 51 0 83 19 83 66 0 30-18 49-45 54zm-38-16c24 0 32-13 32-36 1-23-11-34-32-34-22 0-33 12-32 34 0 22 9 36 32 36zm1 116c27 0 37-17 37-43 0-25-13-39-39-39-24 0-37 15-37 40 0 27 11 42 39 42" id="bH"/><path fill="#19967d" d="M139-81c0-46-55-55-73-27H18l9-140h149v37H72l-4 63c44-38 133-4 122 66C201 21 21 35 11-62l49-4c5 18 15 30 39 30 26 0 40-18 40-45" id="bI"/><g id="E"><use transform="matrix(0.07407407407407406,0,0,0.07407407407407406,0,0)" xlink:href="#bH"/><use transform="matrix(0.07407407407407406,0,0,0.07407407407407406,14.814814814814811,0)" xlink:href="#bI"/><use transform="matrix(0.07407407407407406,0,0,0.07407407407407406,29.629629629629623,0)" xlink:href="#aw"/></g><path fill="#c92d39" d="M139-81c0-46-55-55-73-27H18l9-140h149v37H72l-4 63c44-38 133-4 122 66C201 21 21 35 11-62l49-4c5 18 15 30 39 30 26 0 40-18 40-45" id="bJ"/><g id="F"><use transform="matrix(0.07407407407407406,0,0,0.07407407407407406,0,0)" xlink:href="#bJ"/><use transform="matrix(0.07407407407407406,0,0,0.07407407407407406,14.814814814814811,0)" xlink:href="#aH"/></g><path fill="#333" d="M30-248c87 1 191-15 191 75 0 78-77 80-158 76V0H30v-248zm33 125c57 0 124 11 124-50 0-59-68-47-124-48v98" id="bK"/><path fill="#333" d="M114-163C36-179 61-72 57 0H25l-1-190h30c1 12-1 29 2 39 6-27 23-49 58-41v29" id="bL"/><path fill="#333" d="M24-231v-30h32v30H24zM24 0v-190h32V0H24" id="bM"/><path fill="#333" d="M100-194c62-1 85 37 85 99 1 63-27 99-86 99S16-35 15-95c0-66 28-99 85-99zM99-20c44 1 53-31 53-75 0-43-8-75-51-75s-53 32-53 75 10 74 51 75" id="bN"/><g id="G"><use transform="matrix(0.07407407407407406,0,0,0.07407407407407406,0,0)" xlink:href="#bK"/><use transform="matrix(0.07407407407407406,0,0,0.07407407407407406,17.777777777777775,0)" xlink:href="#bL"/><use transform="matrix(0.07407407407407406,0,0,0.07407407407407406,26.592592592592585,0)" xlink:href="#bM"/><use transform="matrix(0.07407407407407406,0,0,0.07407407407407406,32.444444444444436,0)" xlink:href="#bN"/><use transform="matrix(0.07407407407407406,0,0,0.07407407407407406,47.259259259259245,0)" xlink:href="#bL"/></g><path fill="#333" d="M141-36C126-15 110 5 73 4 37 3 15-17 15-53c-1-64 63-63 125-63 3-35-9-54-41-54-24 1-41 7-42 31l-33-3c5-37 33-52 76-52 45 0 72 20 72 64v82c-1 20 7 32 28 27v20c-31 9-61-2-59-35zM48-53c0 20 12 33 32 33 41-3 63-29 60-74-43 2-92-5-92 41" id="bO"/><path fill="#333" d="M117-194c89-4 53 116 60 194h-32v-121c0-31-8-49-39-48C34-167 62-67 57 0H25l-1-190h30c1 10-1 24 2 32 11-22 29-35 61-36" id="bP"/><path fill="#333" d="M85-194c31 0 48 13 60 33l-1-100h32l1 261h-30c-2-10 0-23-3-31C134-8 116 4 85 4 32 4 16-35 15-94c0-66 23-100 70-100zm9 24c-40 0-46 34-46 75 0 40 6 74 45 74 42 0 51-32 51-76 0-42-9-74-50-73" id="bQ"/><g id="H"><use transform="matrix(0.07407407407407406,0,0,0.07407407407407406,0,0)" xlink:href="#bO"/><use transform="matrix(0.07407407407407406,0,0,0.07407407407407406,14.814814814814811,0)" xlink:href="#bP"/><use transform="matrix(0.07407407407407406,0,0,0.07407407407407406,29.629629629629623,0)" xlink:href="#bQ"/></g><path fill="#333" d="M115-194c55 1 70 41 70 98S169 2 115 4C84 4 66-9 55-30l1 105H24l-1-265h31l2 30c10-21 28-34 59-34zm-8 174c40 0 45-34 45-75s-6-73-45-74c-42 0-51 32-51 76 0 43 10 73 51 73" id="bR"/><path fill="#333" d="M135-143c-3-34-86-38-87 0 15 53 115 12 119 90S17 21 10-45l28-5c4 36 97 45 98 0-10-56-113-15-118-90-4-57 82-63 122-42 12 7 21 19 24 35" id="bS"/><path fill="#333" d="M59-47c-2 24 18 29 38 22v24C64 9 27 4 27-40v-127H5v-23h24l9-43h21v43h35v23H59v120" id="bT"/><path fill="#333" d="M100-194c63 0 86 42 84 106H49c0 40 14 67 53 68 26 1 43-12 49-29l28 8c-11 28-37 45-77 45C44 4 14-33 15-96c1-61 26-98 85-98zm52 81c6-60-76-77-97-28-3 7-6 17-6 28h103" id="bU"/><g id="I"><use transform="matrix(0.07407407407407406,0,0,0.07407407407407406,0,0)" xlink:href="#bR"/><use transform="matrix(0.07407407407407406,0,0,0.07407407407407406,14.814814814814811,0)" xlink:href="#bN"/><use transform="matrix(0.07407407407407406,0,0,0.07407407407407406,29.629629629629623,0)" xlink:href="#bS"/><use transform="matrix(0.07407407407407406,0,0,0.07407407407407406,42.962962962962955,0)" xlink:href="#bT"/><use transform="matrix(0.07407407407407406,0,0,0.07407407407407406,50.37037037037036,0)" xlink:href="#bU"/><use transform="matrix(0.07407407407407406,0,0,0.07407407407407406,65.18518518518518,0)" xlink:href="#bL"/><use transform="matrix(0.07407407407407406,0,0,0.07407407407407406,73.99999999999999,0)" xlink:href="#bM"/><use transform="matrix(0.07407407407407406,0,0,0.07407407407407406,79.85185185185183,0)" xlink:href="#bN"/><use transform="matrix(0.07407407407407406,0,0,0.07407407407407406,94.66666666666664,0)" xlink:href="#bL"/></g><path fill="#333" d="M115-194c53 0 69 39 70 98 0 66-23 100-70 100C84 3 66-7 56-30L54 0H23l1-261h32v101c10-23 28-34 59-34zm-8 174c40 0 45-34 45-75 0-40-5-75-45-74-42 0-51 32-51 76 0 43 10 73 51 73" id="bV"/><path fill="#333" d="M24 0v-261h32V0H24" id="bW"/><path fill="#333" d="M101-234c-31-9-42 10-38 44h38v23H63V0H32v-167H5v-23h27c-7-52 17-82 69-68v24" id="bX"/><g id="J"><use transform="matrix(0.07407407407407406,0,0,0.07407407407407406,0,0)" xlink:href="#bV"/><use transform="matrix(0.07407407407407406,0,0,0.07407407407407406,14.814814814814811,0)" xlink:href="#bU"/><use transform="matrix(0.07407407407407406,0,0,0.07407407407407406,29.629629629629623,0)" xlink:href="#bW"/><use transform="matrix(0.07407407407407406,0,0,0.07407407407407406,35.481481481481474,0)" xlink:href="#bM"/><use transform="matrix(0.07407407407407406,0,0,0.07407407407407406,41.33333333333332,0)" xlink:href="#bU"/><use transform="matrix(0.07407407407407406,0,0,0.07407407407407406,56.14814814814813,0)" xlink:href="#bX"/><use transform="matrix(0.07407407407407406,0,0,0.07407407407407406,63.55555555555553,0)" xlink:href="#bS"/></g><g id="K"><use transform="matrix(0.07407407407407406,0,0,0.07407407407407406,0,0)" xlink:href="#bN"/><use transform="matrix(0.07407407407407406,0,0,0.07407407407407406,14.814814814814811,0)" xlink:href="#bX"/></g><path fill="#333" d="M106-169C34-169 62-67 57 0H25v-261h32l-1 103c12-21 28-36 61-36 89 0 53 116 60 194h-32v-121c2-32-8-49-39-48" id="bY"/><g id="L"><use transform="matrix(0.07407407407407406,0,0,0.07407407407407406,0,0)" xlink:href="#bT"/><use transform="matrix(0.07407407407407406,0,0,0.07407407407407406,7.407407407407406,0)" xlink:href="#bY"/><use transform="matrix(0.07407407407407406,0,0,0.07407407407407406,22.222222222222218,0)" xlink:href="#bU"/></g><path fill="#333" d="M210-169c-67 3-38 105-44 169h-31v-121c0-29-5-50-35-48C34-165 62-65 56 0H25l-1-190h30c1 10-1 24 2 32 10-44 99-50 107 0 11-21 27-35 58-36 85-2 47 119 55 194h-31v-121c0-29-5-49-35-48" id="bZ"/><g id="M"><use transform="matrix(0.07407407407407406,0,0,0.07407407407407406,0,0)" xlink:href="#bZ"/><use transform="matrix(0.07407407407407406,0,0,0.07407407407407406,22.14814814814814,0)" xlink:href="#bU"/><use transform="matrix(0.07407407407407406,0,0,0.07407407407407406,36.962962962962955,0)" xlink:href="#bT"/><use transform="matrix(0.07407407407407406,0,0,0.07407407407407406,44.37037037037036,0)" xlink:href="#bO"/></g><g id="N"><use transform="matrix(0.07407407407407406,0,0,0.07407407407407406,0,0)" xlink:href="#bL"/><use transform="matrix(0.07407407407407406,0,0,0.07407407407407406,8.814814814814813,0)" xlink:href="#bU"/><use transform="matrix(0.07407407407407406,0,0,0.07407407407407406,23.62962962962963,0)" xlink:href="#bO"/><use transform="matrix(0.07407407407407406,0,0,0.07407407407407406,38.444444444444436,0)" xlink:href="#bS"/><use transform="matrix(0.07407407407407406,0,0,0.07407407407407406,51.777777777777764,0)" xlink:href="#bN"/><use transform="matrix(0.07407407407407406,0,0,0.07407407407407406,66.59259259259258,0)" xlink:href="#bP"/><use transform="matrix(0.07407407407407406,0,0,0.07407407407407406,81.40740740740739,0)" xlink:href="#bU"/><use transform="matrix(0.07407407407407406,0,0,0.07407407407407406,96.2222222222222,0)" xlink:href="#bL"/></g><g id="O"><use transform="matrix(0.07407407407407406,0,0,0.07407407407407406,0,0)" xlink:href="#bX"/><use transform="matrix(0.07407407407407406,0,0,0.07407407407407406,7.407407407407406,0)" xlink:href="#bN"/><use transform="matrix(0.07407407407407406,0,0,0.07407407407407406,22.222222222222218,0)" xlink:href="#bL"/></g><use transform="matrix(0.07407407407407406,0,0,0.07407407407407406,0,0)" xlink:href="#bO" id="P"/><g id="Q"><use transform="matrix(0.07407407407407406,0,0,0.07407407407407406,0,0)" xlink:href="#bS"/><use transform="matrix(0.07407407407407406,0,0,0.07407407407407406,13.33333333333333,0)" xlink:href="#bO"/><use transform="matrix(0.07407407407407406,0,0,0.07407407407407406,28.14814814814814,0)" xlink:href="#bZ"/><use transform="matrix(0.07407407407407406,0,0,0.07407407407407406,50.29629629629628,0)" xlink:href="#bR"/><use transform="matrix(0.07407407407407406,0,0,0.07407407407407406,65.1111111111111,0)" xlink:href="#bW"/><use transform="matrix(0.07407407407407406,0,0,0.07407407407407406,70.96296296296295,0)" xlink:href="#bU"/></g><path fill="#333" d="M24-231v-30h32v30H24zM-9 49c24 4 33-6 33-30v-209h32V24c2 40-23 58-65 49V49" id="ca"/><path fill="#333" d="M84 4C-5 8 30-112 23-190h32v120c0 31 7 50 39 49 72-2 45-101 50-169h31l1 190h-30c-1-10 1-25-2-33-11 22-28 36-60 37" id="cb"/><path fill="#333" d="M179-190L93 31C79 59 56 82 12 73V49c39 6 53-20 64-50L1-190h34L92-34l54-156h33" id="cc"/><g id="R"><use transform="matrix(0.07407407407407406,0,0,0.07407407407407406,0,0)" xlink:href="#ca"/><use transform="matrix(0.07407407407407406,0,0,0.07407407407407406,5.85185185185185,0)" xlink:href="#cb"/><use transform="matrix(0.07407407407407406,0,0,0.07407407407407406,20.66666666666666,0)" xlink:href="#bL"/><use transform="matrix(0.07407407407407406,0,0,0.07407407407407406,29.481481481481474,0)" xlink:href="#cc"/></g><path fill="#333" d="M33 0v-38h34V0H33" id="cd"/><g id="S"><use transform="matrix(0.07407407407407406,0,0,0.07407407407407406,0,0)" xlink:href="#bT"/><use transform="matrix(0.07407407407407406,0,0,0.07407407407407406,7.407407407407406,0)" xlink:href="#bL"/><use transform="matrix(0.07407407407407406,0,0,0.07407407407407406,16.222222222222218,0)" xlink:href="#bM"/><use transform="matrix(0.07407407407407406,0,0,0.07407407407407406,22.07407407407407,0)" xlink:href="#bO"/><use transform="matrix(0.07407407407407406,0,0,0.07407407407407406,36.88888888888888,0)" xlink:href="#bW"/><use transform="matrix(0.07407407407407406,0,0,0.07407407407407406,42.74074074074073,0)" xlink:href="#cd"/></g><path fill="#333" d="M127-220V0H93v-220H8v-28h204v28h-85" id="ce"/><g id="T"><use transform="matrix(0.07407407407407406,0,0,0.07407407407407406,0,0)" xlink:href="#ce"/><use transform="matrix(0.07407407407407406,0,0,0.07407407407407406,16.222222222222218,0)" xlink:href="#bY"/><use transform="matrix(0.07407407407407406,0,0,0.07407407407407406,31.03703703703703,0)" xlink:href="#bU"/></g><g id="U"><use transform="matrix(0.07407407407407406,0,0,0.07407407407407406,0,0)" xlink:href="#bR"/><use transform="matrix(0.07407407407407406,0,0,0.07407407407407406,14.814814814814811,0)" xlink:href="#bL"/><use transform="matrix(0.07407407407407406,0,0,0.07407407407407406,23.62962962962963,0)" xlink:href="#bM"/><use transform="matrix(0.07407407407407406,0,0,0.07407407407407406,29.481481481481477,0)" xlink:href="#bN"/><use transform="matrix(0.07407407407407406,0,0,0.07407407407407406,44.29629629629629,0)" xlink:href="#bL"/><use transform="matrix(0.07407407407407406,0,0,0.07407407407407406,53.1111111111111,0)" xlink:href="#bS"/></g><g id="V"><use transform="matrix(0.07407407407407406,0,0,0.07407407407407406,0,0)" xlink:href="#bZ"/><use transform="matrix(0.07407407407407406,0,0,0.07407407407407406,22.14814814814814,0)" xlink:href="#bO"/><use transform="matrix(0.07407407407407406,0,0,0.07407407407407406,36.962962962962955,0)" xlink:href="#cc"/></g><g id="W"><use transform="matrix(0.07407407407407406,0,0,0.07407407407407406,0,0)" xlink:href="#bV"/><use transform="matrix(0.07407407407407406,0,0,0.07407407407407406,14.814814814814811,0)" xlink:href="#bU"/></g><path fill="#333" d="M96-169c-40 0-48 33-48 73s9 75 48 75c24 0 41-14 43-38l32 2c-6 37-31 61-74 61-59 0-76-41-82-99-10-93 101-131 147-64 4 7 5 14 7 22l-32 3c-4-21-16-35-41-35" id="cf"/><g id="X"><use transform="matrix(0.07407407407407406,0,0,0.07407407407407406,0,0)" xlink:href="#bM"/><use transform="matrix(0.07407407407407406,0,0,0.07407407407407406,5.85185185185185,0)" xlink:href="#bP"/><use transform="matrix(0.07407407407407406,0,0,0.07407407407407406,20.66666666666666,0)" xlink:href="#cf"/><use transform="matrix(0.07407407407407406,0,0,0.07407407407407406,33.99999999999999,0)" xlink:href="#bN"/><use transform="matrix(0.07407407407407406,0,0,0.07407407407407406,48.8148148148148,0)" xlink:href="#bP"/><use transform="matrix(0.07407407407407406,0,0,0.07407407407407406,63.62962962962961,0)" xlink:href="#bS"/><use transform="matrix(0.07407407407407406,0,0,0.07407407407407406,76.96296296296295,0)" xlink:href="#bM"/><use transform="matrix(0.07407407407407406,0,0,0.07407407407407406,82.8148148148148,0)" xlink:href="#bS"/><use transform="matrix(0.07407407407407406,0,0,0.07407407407407406,96.14814814814812,0)" xlink:href="#bT"/><use transform="matrix(0.07407407407407406,0,0,0.07407407407407406,103.55555555555553,0)" xlink:href="#bU"/><use transform="matrix(0.07407407407407406,0,0,0.07407407407407406,118.37037037037034,0)" xlink:href="#bP"/><use transform="matrix(0.07407407407407406,0,0,0.07407407407407406,133.18518518518516,0)" xlink:href="#bT"/></g><g id="Y"><use transform="matrix(0.07407407407407406,0,0,0.07407407407407406,0,0)" xlink:href="#bO"/><use transform="matrix(0.07407407407407406,0,0,0.07407407407407406,14.814814814814811,0)" xlink:href="#cf"/><use transform="matrix(0.07407407407407406,0,0,0.07407407407407406,28.14814814814814,0)" xlink:href="#bL"/><use transform="matrix(0.07407407407407406,0,0,0.07407407407407406,36.962962962962955,0)" xlink:href="#bN"/><use transform="matrix(0.07407407407407406,0,0,0.07407407407407406,51.777777777777764,0)" xlink:href="#bS"/><use transform="matrix(0.07407407407407406,0,0,0.07407407407407406,65.1111111111111,0)" xlink:href="#bS"/></g><path fill="#333" d="M68-38c1 34 0 65-14 84H32c9-13 17-26 17-46H33v-38h35" id="cg"/><g id="Z"><use transform="matrix(0.07407407407407406,0,0,0.07407407407407406,0,0)" xlink:href="#ca"/><use transform="matrix(0.07407407407407406,0,0,0.07407407407407406,5.85185185185185,0)" xlink:href="#cb"/><use transform="matrix(0.07407407407407406,0,0,0.07407407407407406,20.66666666666666,0)" xlink:href="#bL"/><use transform="matrix(0.07407407407407406,0,0,0.07407407407407406,29.481481481481474,0)" xlink:href="#bM"/><use transform="matrix(0.07407407407407406,0,0,0.07407407407407406,35.33333333333332,0)" xlink:href="#bU"/><use transform="matrix(0.07407407407407406,0,0,0.07407407407407406,50.14814814814813,0)" xlink:href="#bS"/><use transform="matrix(0.07407407407407406,0,0,0.07407407407407406,63.48148148148146,0)" xlink:href="#cg"/></g><g id="aa"><use transform="matrix(0.07407407407407406,0,0,0.07407407407407406,0,0)" xlink:href="#bV"/><use transform="matrix(0.07407407407407406,0,0,0.07407407407407406,14.814814814814811,0)" xlink:href="#cb"/><use transform="matrix(0.07407407407407406,0,0,0.07407407407407406,29.629629629629623,0)" xlink:href="#bT"/></g><g id="ab"><use transform="matrix(0.07407407407407406,0,0,0.07407407407407406,0,0)" xlink:href="#bR"/><use transform="matrix(0.07407407407407406,0,0,0.07407407407407406,14.814814814814811,0)" xlink:href="#bN"/><use transform="matrix(0.07407407407407406,0,0,0.07407407407407406,29.629629629629623,0)" xlink:href="#bS"/><use transform="matrix(0.07407407407407406,0,0,0.07407407407407406,42.962962962962955,0)" xlink:href="#bT"/><use transform="matrix(0.07407407407407406,0,0,0.07407407407407406,50.37037037037036,0)" xlink:href="#bU"/><use transform="matrix(0.07407407407407406,0,0,0.07407407407407406,65.18518518518518,0)" xlink:href="#bL"/><use transform="matrix(0.07407407407407406,0,0,0.07407407407407406,73.99999999999999,0)" xlink:href="#bM"/><use transform="matrix(0.07407407407407406,0,0,0.07407407407407406,79.85185185185183,0)" xlink:href="#bN"/><use transform="matrix(0.07407407407407406,0,0,0.07407407407407406,94.66666666666664,0)" xlink:href="#bL"/><use transform="matrix(0.07407407407407406,0,0,0.07407407407407406,103.48148148148145,0)" xlink:href="#bS"/></g><g id="ac"><use transform="matrix(0.07407407407407406,0,0,0.07407407407407406,0,0)" xlink:href="#bO"/><use transform="matrix(0.07407407407407406,0,0,0.07407407407407406,14.814814814814811,0)" xlink:href="#bL"/><use transform="matrix(0.07407407407407406,0,0,0.07407407407407406,23.62962962962963,0)" xlink:href="#bU"/></g><g id="ad"><use transform="matrix(0.07407407407407406,0,0,0.07407407407407406,0,0)" xlink:href="#cf"/><use transform="matrix(0.07407407407407406,0,0,0.07407407407407406,13.33333333333333,0)" xlink:href="#bN"/><use transform="matrix(0.07407407407407406,0,0,0.07407407407407406,28.14814814814814,0)" xlink:href="#bP"/><use transform="matrix(0.07407407407407406,0,0,0.07407407407407406,42.962962962962955,0)" xlink:href="#bS"/><use transform="matrix(0.07407407407407406,0,0,0.07407407407407406,56.29629629629628,0)" xlink:href="#bT"/><use transform="matrix(0.07407407407407406,0,0,0.07407407407407406,63.70370370370369,0)" xlink:href="#bU"/><use transform="matrix(0.07407407407407406,0,0,0.07407407407407406,78.5185185185185,0)" xlink:href="#bP"/><use transform="matrix(0.07407407407407406,0,0,0.07407407407407406,93.33333333333331,0)" xlink:href="#bT"/><use transform="matrix(0.07407407407407406,0,0,0.07407407407407406,100.74074074074072,0)" xlink:href="#cg"/></g><g id="ae"><use transform="matrix(0.07407407407407406,0,0,0.07407407407407406,0,0)" xlink:href="#bV"/><use transform="matrix(0.07407407407407406,0,0,0.07407407407407406,14.814814814814811,0)" xlink:href="#bU"/><use transform="matrix(0.07407407407407406,0,0,0.07407407407407406,29.629629629629623,0)" xlink:href="#cf"/><use transform="matrix(0.07407407407407406,0,0,0.07407407407407406,42.962962962962955,0)" xlink:href="#bO"/><use transform="matrix(0.07407407407407406,0,0,0.07407407407407406,57.777777777777764,0)" xlink:href="#cb"/><use transform="matrix(0.07407407407407406,0,0,0.07407407407407406,72.59259259259258,0)" xlink:href="#bS"/><use transform="matrix(0.07407407407407406,0,0,0.07407407407407406,85.92592592592591,0)" xlink:href="#bU"/></g><path fill="#333" d="M16-82v-28h88v28H16" id="ch"/><g id="af"><use transform="matrix(0.07407407407407406,0,0,0.07407407407407406,0,0)" xlink:href="#bZ"/><use transform="matrix(0.07407407407407406,0,0,0.07407407407407406,22.14814814814814,0)" xlink:href="#bU"/><use transform="matrix(0.07407407407407406,0,0,0.07407407407407406,36.962962962962955,0)" xlink:href="#bT"/><use transform="matrix(0.07407407407407406,0,0,0.07407407407407406,44.37037037037036,0)" xlink:href="#bO"/><use transform="matrix(0.07407407407407406,0,0,0.07407407407407406,59.18518518518517,0)" xlink:href="#ch"/><use transform="matrix(0.07407407407407406,0,0,0.07407407407407406,67.99999999999999,0)" xlink:href="#bL"/><use transform="matrix(0.07407407407407406,0,0,0.07407407407407406,76.8148148148148,0)" xlink:href="#bU"/><use transform="matrix(0.07407407407407406,0,0,0.07407407407407406,91.6296296296296,0)" xlink:href="#bO"/><use transform="matrix(0.07407407407407406,0,0,0.07407407407407406,106.44444444444441,0)" xlink:href="#bS"/><use transform="matrix(0.07407407407407406,0,0,0.07407407407407406,119.77777777777774,0)" xlink:href="#bN"/><use transform="matrix(0.07407407407407406,0,0,0.07407407407407406,134.59259259259255,0)" xlink:href="#bP"/><use transform="matrix(0.07407407407407406,0,0,0.07407407407407406,149.40740740740736,0)" xlink:href="#bU"/><use transform="matrix(0.07407407407407406,0,0,0.07407407407407406,164.22222222222217,0)" xlink:href="#bL"/></g><g id="ag"><use transform="matrix(0.07407407407407406,0,0,0.07407407407407406,0,0)" xlink:href="#cb"/><use transform="matrix(0.07407407407407406,0,0,0.07407407407407406,14.814814814814811,0)" xlink:href="#bR"/><use transform="matrix(0.07407407407407406,0,0,0.07407407407407406,29.629629629629623,0)" xlink:href="#bQ"/><use transform="matrix(0.07407407407407406,0,0,0.07407407407407406,44.444444444444436,0)" xlink:href="#bO"/><use transform="matrix(0.07407407407407406,0,0,0.07407407407407406,59.259259259259245,0)" xlink:href="#bT"/><use transform="matrix(0.07407407407407406,0,0,0.07407407407407406,66.66666666666666,0)" xlink:href="#bU"/><use transform="matrix(0.07407407407407406,0,0,0.07407407407407406,81.48148148148147,0)" xlink:href="#bS"/></g><g id="ah"><use transform="matrix(0.07407407407407406,0,0,0.07407407407407406,0,0)" xlink:href="#bM"/><use transform="matrix(0.07407407407407406,0,0,0.07407407407407406,5.85185185185185,0)" xlink:href="#bT"/><use transform="matrix(0.07407407407407406,0,0,0.07407407407407406,13.259259259259256,0)" xlink:href="#bS"/></g><g id="ai"><use transform="matrix(0.07407407407407406,0,0,0.07407407407407406,0,0)" xlink:href="#bU"/><use transform="matrix(0.07407407407407406,0,0,0.07407407407407406,14.814814814814811,0)" xlink:href="#bO"/><use transform="matrix(0.07407407407407406,0,0,0.07407407407407406,29.629629629629623,0)" xlink:href="#cf"/><use transform="matrix(0.07407407407407406,0,0,0.07407407407407406,42.962962962962955,0)" xlink:href="#bY"/></g><g id="aj"><use transform="matrix(0.07407407407407406,0,0,0.07407407407407406,0,0)" xlink:href="#bT"/><use transform="matrix(0.07407407407407406,0,0,0.07407407407407406,7.407407407407406,0)" xlink:href="#bN"/></g><g id="ak"><use transform="matrix(0.07407407407407406,0,0,0.07407407407407406,0,0)" xlink:href="#cf"/><use transform="matrix(0.07407407407407406,0,0,0.07407407407407406,13.33333333333333,0)" xlink:href="#bN"/><use transform="matrix(0.07407407407407406,0,0,0.07407407407407406,28.14814814814814,0)" xlink:href="#bP"/><use transform="matrix(0.07407407407407406,0,0,0.07407407407407406,42.962962962962955,0)" xlink:href="#bS"/><use transform="matrix(0.07407407407407406,0,0,0.07407407407407406,56.29629629629628,0)" xlink:href="#bM"/><use transform="matrix(0.07407407407407406,0,0,0.07407407407407406,62.14814814814813,0)" xlink:href="#bS"/><use transform="matrix(0.07407407407407406,0,0,0.07407407407407406,75.48148148148147,0)" xlink:href="#bT"/><use transform="matrix(0.07407407407407406,0,0,0.07407407407407406,82.88888888888887,0)" xlink:href="#bU"/><use transform="matrix(0.07407407407407406,0,0,0.07407407407407406,97.70370370370368,0)" xlink:href="#bP"/><use transform="matrix(0.07407407407407406,0,0,0.07407407407407406,112.51851851851849,0)" xlink:href="#bT"/></g><path fill="#333" d="M206 0h-36l-40-164L89 0H53L-1-190h32L70-26l43-164h34l41 164 42-164h31" id="ci"/><g id="al"><use transform="matrix(0.07407407407407406,0,0,0.07407407407407406,0,0)" xlink:href="#ci"/><use transform="matrix(0.07407407407407406,0,0,0.07407407407407406,19.18518518518518,0)" xlink:href="#bM"/><use transform="matrix(0.07407407407407406,0,0,0.07407407407407406,25.03703703703703,0)" xlink:href="#bT"/><use transform="matrix(0.07407407407407406,0,0,0.07407407407407406,32.444444444444436,0)" xlink:href="#bY"/></g><g id="am"><use transform="matrix(0.07407407407407406,0,0,0.07407407407407406,0,0)" xlink:href="#bT"/><use transform="matrix(0.07407407407407406,0,0,0.07407407407407406,7.407407407407406,0)" xlink:href="#bY"/><use transform="matrix(0.07407407407407406,0,0,0.07407407407407406,22.222222222222218,0)" xlink:href="#bU"/></g><g id="an"><use transform="matrix(0.07407407407407406,0,0,0.07407407407407406,0,0)" xlink:href="#bS"/><use transform="matrix(0.07407407407407406,0,0,0.07407407407407406,13.33333333333333,0)" xlink:href="#cb"/><use transform="matrix(0.07407407407407406,0,0,0.07407407407407406,28.14814814814814,0)" xlink:href="#bV"/><use transform="matrix(0.07407407407407406,0,0,0.07407407407407406,42.962962962962955,0)" xlink:href="#ch"/><use transform="matrix(0.07407407407407406,0,0,0.07407407407407406,51.77777777777777,0)" xlink:href="#ca"/><use transform="matrix(0.07407407407407406,0,0,0.07407407407407406,57.62962962962962,0)" xlink:href="#cb"/><use transform="matrix(0.07407407407407406,0,0,0.07407407407407406,72.44444444444443,0)" xlink:href="#bL"/><use transform="matrix(0.07407407407407406,0,0,0.07407407407407406,81.25925925925924,0)" xlink:href="#bM"/><use transform="matrix(0.07407407407407406,0,0,0.07407407407407406,87.11111111111109,0)" xlink:href="#bU"/><use transform="matrix(0.07407407407407406,0,0,0.07407407407407406,101.9259259259259,0)" xlink:href="#bS"/><use transform="matrix(0.07407407407407406,0,0,0.07407407407407406,115.25925925925924,0)" xlink:href="#cd"/></g><path fill="#c92d39" d="M81-51L58-7H21l23-44H5v-39h58l29-58H5v-39h106l23-46h37l-23 46h45v39h-64l-29 58h93v39H81" id="cj"/><use transform="matrix(0.06790123456790122,0,0,0.06790123456790122,0,0)" xlink:href="#cj" id="ao"/><path fill="#19967d" d="M15-148v-39h180v39H15zm0 97v-39h180v39H15" id="ck"/><use transform="matrix(0.06790123456790122,0,0,0.06790123456790122,0,0)" xlink:href="#ck" id="ap"/><path fill="#333" d="M190 0L58-211 59 0H30v-248h39L202-35l-2-213h31V0h-41" id="cl"/><g id="aq"><use transform="matrix(0.07407407407407404,0,0,0.07407407407407404,0,0)" xlink:href="#cl"/><use transform="matrix(0.07407407407407404,0,0,0.07407407407407404,19.185185185185176,0)" xlink:href="#bU"/><use transform="matrix(0.07407407407407404,0,0,0.07407407407407404,33.999999999999986,0)" xlink:href="#ci"/></g><path fill="#333" d="M33 0v-248h34V0H33" id="cm"/><g id="ar"><use transform="matrix(0.07407407407407404,0,0,0.07407407407407404,0,0)" xlink:href="#cm"/><use transform="matrix(0.07407407407407404,0,0,0.07407407407407404,7.407407407407404,0)" xlink:href="#bP"/><use transform="matrix(0.07407407407407404,0,0,0.07407407407407404,22.222222222222214,0)" xlink:href="#bX"/><use transform="matrix(0.07407407407407404,0,0,0.07407407407407404,29.629629629629616,0)" xlink:href="#bN"/><use transform="matrix(0.07407407407407404,0,0,0.07407407407407404,44.44444444444443,0)" xlink:href="#bL"/><use transform="matrix(0.07407407407407404,0,0,0.07407407407407404,53.25925925925923,0)" xlink:href="#bZ"/><use transform="matrix(0.07407407407407404,0,0,0.07407407407407404,75.40740740740736,0)" xlink:href="#bO"/><use transform="matrix(0.07407407407407404,0,0,0.07407407407407404,90.22222222222217,0)" xlink:href="#bT"/><use transform="matrix(0.07407407407407404,0,0,0.07407407407407404,97.62962962962958,0)" xlink:href="#bM"/><use transform="matrix(0.07407407407407404,0,0,0.07407407407407404,103.48148148148142,0)" xlink:href="#bN"/><use transform="matrix(0.07407407407407404,0,0,0.07407407407407404,118.29629629629623,0)" xlink:href="#bP"/></g></defs></g></svg>